<?xml version="1.0" encoding="iso-8859-1"?>
<!-- Generator: Adobe Illustrator 23.0.4, SVG Export Plug-In . SVG Version: 6.00 Build 0)  -->
<svg version="1.1" id="Layer_1" xmlns="http://www.w3.org/2000/svg" xmlns:xlink="http://www.w3.org/1999/xlink" x="0px" y="0px"
	 width="2000px" height="1920px" viewBox="0 0 2000 1920" enable-background="new 0 0 2000 1920" xml:space="preserve">
<g>
	<path d="M1997.505,5.546c-1.276,1.84-2.543,3.686-3.831,5.517c-44.395,63.091-89.508,125.693-132.964,189.424
		c-35.057,51.414-65.323,105.683-89.053,163.428c-34.447,83.828-47.232,171.046-42.05,261.249
		c3.355,58.404,12.861,115.859,25.887,172.786c16.297,71.216,24.256,143.247,20.188,216.29
		c-10.123,181.765-76.927,339.812-201.209,472.789c-107.86,115.406-239.56,189.915-394.446,221.624
		c-157.969,32.34-310.586,13.132-457.667-52.146c-43.51-19.311-84.795-42.677-124.218-69.344c-1.094-0.74-2.147-1.54-3.745-2.692
		c1.543-0.883,2.689-1.656,3.927-2.231c72.526-33.658,145.071-67.276,217.555-101.023c3.285-1.53,5.91-1.054,8.984,0.124
		c74.663,28.608,151.849,42.899,231.896,39.624c123.328-5.045,232.105-47.967,325.71-128.201
		c99.013-84.869,160.993-191.673,184.036-320.194c18.823-104.981,7.281-207.124-32.8-305.964
		c-13.942-34.381-52.565-47.733-86.226-30.057c-4.108,2.157-7.994,4.818-11.734,7.582
		c-216.828,160.265-433.63,320.565-650.436,480.86c-1.834,1.356-3.69,2.684-5.536,4.025c-0.344-0.374-0.689-0.747-1.033-1.121
		C1184.605,820.085,1590.468,412.274,1996.331,4.463C1996.722,4.824,1997.114,5.185,1997.505,5.546z"/>
	<path d="M635.931,1353.173C425.433,1541.452,215.15,1729.537,4.867,1917.623c-0.275-0.19-0.551-0.38-0.826-0.57
		c1.039-1.478,2.041-2.984,3.123-4.431c29.898-39.969,63.26-76.964,97.26-113.421c40.804-43.752,82.042-87.114,122.109-131.532
		c35.108-38.921,66.724-80.614,91.953-126.809c19.879-36.398,34.424-74.673,40.535-115.893
		c7.782-52.496,1.059-103.422-17.762-152.706c-13.437-35.185-26.864-70.312-36.291-106.847
		c-21.394-82.908-28.324-166.979-21.201-252.304c19.974-239.28,151.763-453.739,355.913-578.35
		c90.292-55.114,188.023-89.471,292.95-102.908c130.165-16.669,256.024-0.09,377.981,48.558
		c52.942,21.118,102.709,47.566,149.092,80.552c1.22,0.868,2.42,1.767,3.601,2.688c0.244,0.19,0.36,0.544,0.758,1.179
		c-1.649,0.801-3.241,1.608-4.86,2.357c-71.815,33.205-143.623,66.428-215.499,99.5c-2.256,1.038-5.598,1.456-7.816,0.587
		c-152.615-59.802-303.123-52.584-449.63,18.494c-142.377,69.074-234.294,183.195-283.161,332.63
		c-22.431,68.594-30.403,139.234-23.761,211.172c11.547,125.044,63.341,231.057,152.534,319.089
		c1.067,1.053,2.142,2.099,3.193,3.168C635.287,1352.055,635.421,1352.372,635.931,1353.173z"/>
</g>
</svg>
